# xmcd
# 
# Track frame offsets:
#     150
#     22082
#     44168
#     70641
#     111440
#     139894
#     154291
#     165208
#     183740
#     202828
#     218726
#     237925
#     253066
#     270423
#     292005
#     302137
#     312522
#     332297
# 
# Disc length: 4642
# 
# Revision: 6
# Processed by: cddbd v1.5.2PL0 Copyright (c) Steve Scherf et al.
# Submitted via: fre:ac v1.0.17
# 
DISCID=0e122012
DTITLE=Helene Fischer - Live mit Band und Orchester 2011 Lanxess Arena Kln
DYEAR=2011
DGENRE=Deutsch Schlager
TTITLE0=Von hier bis unendlich
TTITLE1=Manchmal kommt die Liebe einfach so
TTITLE2=Medley 1 =Vergeben, vergessen und wieder vertrau'n - König der Herzen
TTITLE3=Medley 2 =Das letzte Wort hat die Liebe - Im Reigen der Gefühle - Zaubermond
TTITLE4=Russisches Medley =Poluschko pole - Lutsche bulo - Dorgoj dlinnoju
TTITLE5=Big spender
TTITLE6=Send in the clowns
TTITLE7=Memory
TTITLE8=Ich will immer wieder... dieses Fieber spür'n
TTITLE9=Who wants to live forever
TTITLE10=Du hast mein Herz berührt
TTITLE11=Du fängst mich auf und lässt mich fliegen
TTITLE12=Mal ganz ehrlich
TTITLE13=Hundert Prozent
TTITLE14=Pokerface
TTITLE15=Ich glaub' Dir hundert Lügen
TTITLE16=Und morgen früh küss' ich Dich wach
TTITLE17=What a wonderful world
EXTD=
EXTT0=
EXTT1=
EXTT2=
EXTT3=
EXTT4=
EXTT5=
EXTT6=
EXTT7=
EXTT8=
EXTT9=
EXTT10=
EXTT11=
EXTT12=
EXTT13=
EXTT14=
EXTT15=
EXTT16=
EXTT17=
PLAYORDER=
